<svg width="17" height="21" viewBox="0 0 17 21" fill="none" xmlns="http://www.w3.org/2000/svg">
<path d="M12.0564 7.66044L9.97265 6.23509C9.75101 6.08348 9.4609 6 9.15581 6H5.18859C4.5332 6 4 6.38552 4 6.85938V13.1406C4 13.6145 4.5332 14 5.18859 14H11.2396C11.895 14 12.4282 13.6145 12.4282 13.1406V8.28472C12.4282 8.04958 12.2927 7.82203 12.0564 7.66044ZM11.4267 7.875H9.81327C9.75369 7.875 9.70521 7.83995 9.70521 7.79688V6.69744L11.4267 7.875ZM11.2396 13.5312H5.18859C4.89068 13.5312 4.64832 13.356 4.64832 13.1406V6.85938C4.64832 6.64398 4.89068 6.46875 5.18859 6.46875H9.05689V7.79688C9.05689 8.09842 9.3962 8.34375 9.81327 8.34375H11.7798V13.1406C11.7798 13.356 11.5375 13.5312 11.2396 13.5312Z" fill="white"/>
<path d="M10.5264 9.125H5.77204C5.59301 9.125 5.44788 9.22994 5.44788 9.35937C5.44788 9.48881 5.59301 9.59375 5.77204 9.59375H10.5264C10.7054 9.59375 10.8505 9.48881 10.8505 9.35937C10.8505 9.22994 10.7054 9.125 10.5264 9.125Z" fill="white"/>
<path d="M10.5264 10.375H5.77204C5.59301 10.375 5.44788 10.4799 5.44788 10.6094C5.44788 10.7388 5.59301 10.8437 5.77204 10.8437H10.5264C10.7054 10.8437 10.8505 10.7388 10.8505 10.6094C10.8505 10.4799 10.7054 10.375 10.5264 10.375Z" fill="white"/>
<path d="M7.34356 11.6249H5.77204C5.59301 11.6249 5.44788 11.7298 5.44788 11.8593C5.44788 11.9887 5.59301 12.0936 5.77204 12.0936H7.34356C7.52259 12.0936 7.66772 11.9887 7.66772 11.8593C7.66772 11.7298 7.52259 11.6249 7.34356 11.6249Z" fill="white"/>
<path fill-rule="evenodd" clip-rule="evenodd" d="M1.63297 4.39922C1.02199 4.70752 0.807472 5.52659 1.15629 6.21786L1.99161 7.87331C2.04399 7.97711 2.01215 8.09875 1.9205 8.145C1.82884 8.19125 1.71208 8.14459 1.6597 8.04078L0.824381 6.38534C0.3707 5.48624 0.649195 4.42401 1.44329 4.02331L7.02031 1.20919C7.81441 0.808494 8.8343 1.21557 9.28798 2.11467L10.1233 3.77011C10.1757 3.87391 10.1438 3.99555 10.0522 4.0418C9.96054 4.08805 9.84378 4.04139 9.7914 3.93759L8.95608 2.28215C8.60726 1.59087 7.82097 1.2768 7.21 1.58509L1.63297 4.39922Z" fill="white"/>
<path fill-rule="evenodd" clip-rule="evenodd" d="M8.31149 3.27503C8.33926 3.16893 8.44434 3.11591 8.54618 3.15661L9.86635 3.68416L10.2263 2.30882C10.2541 2.20271 10.3592 2.14969 10.461 2.19039C10.5629 2.23109 10.6229 2.3501 10.5952 2.4562L10.1849 4.02366C10.1571 4.12976 10.052 4.18278 9.95019 4.14208L8.44562 3.54084C8.34377 3.50014 8.28372 3.38113 8.31149 3.27503Z" fill="white"/>
<path fill-rule="evenodd" clip-rule="evenodd" d="M15.3335 15.7569C15.9423 15.4439 16.1508 14.6232 15.7968 13.9346L14.9491 12.2855C14.8959 12.1821 14.9268 12.0603 15.0182 12.0133C15.1095 11.9664 15.2266 12.0121 15.2798 12.1155L16.1275 13.7646C16.5879 14.6603 16.3173 15.7246 15.526 16.1314L9.96913 18.9879C9.1779 19.3947 8.15484 18.9954 7.69442 18.0997L6.8467 16.4507C6.79354 16.3473 6.82448 16.2254 6.9158 16.1784C7.00712 16.1315 7.12425 16.1773 7.1774 16.2807L8.02513 17.9297C8.37912 18.6184 9.16786 18.9264 9.77663 18.6135L15.3335 15.7569Z" fill="white"/>
<path fill-rule="evenodd" clip-rule="evenodd" d="M8.66239 16.9318C8.6354 17.0382 8.53071 17.092 8.42855 17.0521L7.10428 16.5346L6.75446 17.9126C6.72747 18.019 6.62277 18.0728 6.52061 18.0329C6.41845 17.9929 6.35751 17.8744 6.3845 17.7681L6.78318 16.1975C6.81017 16.0912 6.91487 16.0374 7.01703 16.0773L8.52628 16.6671C8.62844 16.707 8.68938 16.8255 8.66239 16.9318Z" fill="white"/>
</svg>
