<svg width="20" height="18" viewBox="0 0 20 18" fill="none" xmlns="http://www.w3.org/2000/svg">
<path d="M7.10052 6.87509L5.26399 5.49801C5.06865 5.35153 4.81297 5.27087 4.54407 5.27087H1.04756C0.469936 5.27087 0 5.64334 0 6.10115V12.1697C0 12.6275 0.469936 13 1.04756 13H6.3806C6.95822 13 7.42816 12.6275 7.42816 12.1697V7.47823C7.42816 7.25106 7.30873 7.03121 7.10052 6.87509ZM6.54556 7.08239H5.12352C5.07101 7.08239 5.02829 7.04853 5.02829 7.00691V5.9447L6.54556 7.08239ZM6.3806 12.5471H1.04756C0.785004 12.5471 0.571397 12.3778 0.571397 12.1697V6.10115C0.571397 5.89305 0.785004 5.72375 1.04756 5.72375H4.45689V7.00691C4.45689 7.29824 4.75594 7.53527 5.12352 7.53527H6.85676V12.1697C6.85676 12.3778 6.64315 12.5471 6.3806 12.5471Z" fill="white"/>
<path d="M5.75206 8.29004H1.56182C1.40404 8.29004 1.27612 8.39142 1.27612 8.51648C1.27612 8.64153 1.40404 8.74292 1.56182 8.74292H5.75206C5.90985 8.74292 6.03776 8.64153 6.03776 8.51648C6.03776 8.39142 5.90985 8.29004 5.75206 8.29004Z" fill="white"/>
<path d="M5.75206 9.49768H1.56182C1.40404 9.49768 1.27612 9.59907 1.27612 9.72412C1.27612 9.84917 1.40404 9.95056 1.56182 9.95056H5.75206C5.90985 9.95056 6.03776 9.84917 6.03776 9.72412C6.03776 9.59907 5.90985 9.49768 5.75206 9.49768Z" fill="white"/>
<path d="M2.94689 10.7053H1.56182C1.40404 10.7053 1.27612 10.8067 1.27612 10.9318C1.27612 11.0568 1.40404 11.1582 1.56182 11.1582H2.94689C3.10467 11.1582 3.23259 11.0568 3.23259 10.9318C3.23259 10.8067 3.10467 10.7053 2.94689 10.7053Z" fill="white"/>
<path d="M10.9469 9.13523C10.9469 10.4475 11.9099 11.5815 13.3064 12.1189L11.3094 7.78601C11.0771 8.19832 10.9469 8.6546 10.9469 9.13523Z" fill="white"/>
<path d="M17.9595 8.96791C17.9595 8.55819 17.7736 8.27444 17.6142 8.05359C17.402 7.7805 17.2031 7.54924 17.2031 7.27615C17.2031 6.9714 17.495 6.68771 17.9061 6.68771C17.9247 6.68771 17.9423 6.68954 17.9604 6.69036C17.2155 6.14999 16.2232 5.82007 15.1333 5.82007C13.6707 5.82007 12.3839 6.41431 11.6354 7.31438C11.7336 7.31671 11.8262 7.31835 11.9048 7.31835C12.3427 7.31835 13.0205 7.27628 13.0205 7.27628C13.2462 7.26574 13.2728 7.52823 13.0474 7.54936C13.0474 7.54936 12.8206 7.5705 12.5682 7.58097L14.0928 11.172L15.0089 8.99605L14.3567 7.58084C14.1312 7.57037 13.9177 7.54924 13.9177 7.54924C13.6921 7.53877 13.7185 7.26562 13.9441 7.27615C13.9441 7.27615 14.6355 7.31823 15.0468 7.31823C15.4847 7.31823 16.1626 7.27615 16.1626 7.27615C16.3884 7.26562 16.4149 7.52811 16.1894 7.54924C16.1894 7.54924 15.9622 7.57037 15.7103 7.58084L17.2232 11.1447L17.6408 10.0396C17.8218 9.58108 17.9595 9.25172 17.9595 8.96791Z" fill="white"/>
<path d="M15.2068 9.42529L13.9507 12.3157C14.3257 12.403 14.7224 12.4508 15.1333 12.4508C15.6209 12.4508 16.0884 12.384 16.5236 12.2628C16.5123 12.2486 16.5021 12.2336 16.4938 12.2172L15.2068 9.42529Z" fill="white"/>
<path d="M18.807 7.54468C18.825 7.65028 18.8352 7.76364 18.8352 7.88558C18.8352 8.222 18.7558 8.60018 18.5168 9.07305L17.238 12.0009C18.4827 11.4262 19.3198 10.3584 19.3198 9.13532C19.3199 8.55893 19.134 8.01692 18.807 7.54468Z" fill="white"/>
<path d="M15.1197 5.27087C12.4288 5.27087 10.2395 7.00446 10.2395 9.13534C10.2395 11.2665 12.4288 13 15.1197 13C17.8105 13 20.0001 11.2665 20.0001 9.13534C20 7.00446 17.8105 5.27087 15.1197 5.27087ZM15.1197 12.8229C12.5522 12.8229 10.4633 11.1686 10.4633 9.13534C10.4633 7.10218 12.5521 5.44807 15.1197 5.44807C17.6871 5.44807 19.7759 7.10218 19.7759 9.13534C19.7759 11.1686 17.6871 12.8229 15.1197 12.8229Z" fill="white"/>
<path fill-rule="evenodd" clip-rule="evenodd" d="M6.61662 0.421053C5.93227 0.421053 5.37177 1.05566 5.37177 1.82996V3.68421C5.37177 3.80048 5.28854 3.89474 5.18588 3.89474C5.08322 3.89474 5 3.80048 5 3.68421V1.82996C5 0.822881 5.72716 0 6.61662 0H12.8634C13.7529 0 14.48 0.822881 14.48 1.82996V3.68421C14.48 3.80048 14.3968 3.89474 14.2942 3.89474C14.1915 3.89474 14.1083 3.80048 14.1083 3.68421V1.82996C14.1083 1.05566 13.5478 0.421053 12.8634 0.421053H6.61662Z" fill="white"/>
<path fill-rule="evenodd" clip-rule="evenodd" d="M13.0854 2.42604C13.158 2.34383 13.2757 2.34383 13.3483 2.42604L14.2893 3.49175L15.2303 2.42604C15.3028 2.34383 15.4205 2.34383 15.4931 2.42604C15.5657 2.50826 15.5657 2.64156 15.4931 2.72377L14.4207 3.93835C14.3481 4.02056 14.2304 4.02056 14.1579 3.93835L13.0854 2.72377C13.0129 2.64156 13.0129 2.50826 13.0854 2.42604Z" fill="white"/>
<path fill-rule="evenodd" clip-rule="evenodd" d="M12.0272 17.5788C12.7046 17.5788 13.2594 16.9442 13.2594 16.17V14.3158C13.2594 14.1995 13.3417 14.1052 13.4433 14.1052C13.5449 14.1052 13.6273 14.1995 13.6273 14.3158V16.17C13.6273 17.177 12.9076 17.9999 12.0272 17.9999H5.84421C4.96384 17.9999 4.2441 17.177 4.2441 16.17V14.3158C4.2441 14.1995 4.32647 14.1052 4.42809 14.1052C4.5297 14.1052 4.61207 14.1995 4.61207 14.3158V16.17C4.61207 16.9442 5.16685 17.5788 5.84421 17.5788H12.0272Z" fill="white"/>
<path fill-rule="evenodd" clip-rule="evenodd" d="M5.62433 15.574C5.55248 15.6562 5.43599 15.6562 5.36414 15.574L4.43279 14.5083L3.50143 15.574C3.42958 15.6562 3.31309 15.6562 3.24124 15.574C3.16939 15.4917 3.16939 15.3585 3.24124 15.2762L4.30269 14.0617C4.37454 13.9795 4.49103 13.9795 4.56288 14.0617L5.62433 15.2762C5.69619 15.3585 5.69619 15.4917 5.62433 15.574Z" fill="white"/>
</svg>
