<svg width="220" height="126" viewBox="0 0 220 126" fill="none" xmlns="http://www.w3.org/2000/svg">
<g clip-path="url(#clip0_1_369)">
<path d="M77.5784 45.0877L57.513 34.1749C55.3787 33.0142 52.5852 32.375 49.6473 32.375H11.4454C5.13439 32.375 0 35.3266 0 38.9546V87.0454C0 90.6734 5.13439 93.625 11.4454 93.625H69.7127C76.0237 93.625 81.1581 90.6734 81.1581 87.0454V49.8674C81.1581 48.0671 79.8533 46.3249 77.5784 45.0877ZM71.515 46.7305H55.9783C55.4045 46.7305 54.9378 46.4621 54.9378 46.1323V37.7148L71.515 46.7305ZM69.7127 90.0362H11.4454C8.57674 90.0362 6.24293 88.6945 6.24293 87.0454V38.9546C6.24293 37.3055 8.57674 35.9639 11.4454 35.9639H48.6948V46.1323C48.6948 48.441 51.9622 50.3193 55.9783 50.3193H74.9151V87.0454C74.9151 88.6945 72.5813 90.0362 69.7127 90.0362Z" fill="white"/>
<path d="M62.8456 56.3007H17.0641C15.3402 56.3007 13.9426 57.1041 13.9426 58.0951C13.9426 59.0861 15.3402 59.8895 17.0641 59.8895H62.8456C64.5694 59.8895 65.967 59.0861 65.967 58.0951C65.967 57.1041 64.5694 56.3007 62.8456 56.3007Z" fill="white"/>
<path d="M62.8456 65.8711H17.0641C15.3402 65.8711 13.9426 66.6745 13.9426 67.6655C13.9426 68.6565 15.3402 69.46 17.0641 69.46H62.8456C64.5694 69.46 65.967 68.6565 65.967 67.6655C65.967 66.6745 64.5694 65.8711 62.8456 65.8711Z" fill="white"/>
<path d="M32.1969 75.4412H17.0641C15.3402 75.4412 13.9426 76.2446 13.9426 77.2356C13.9426 78.2266 15.3402 79.03 17.0641 79.03H32.1969C33.9208 79.03 35.3184 78.2266 35.3184 77.2356C35.3184 76.2446 33.9208 75.4412 32.1969 75.4412Z" fill="white"/>
<path d="M119.602 62.9986C119.602 73.3977 130.124 82.3845 145.381 86.6432L123.563 52.3066C121.025 55.574 119.602 59.1898 119.602 62.9986Z" fill="white"/>
<path d="M196.221 61.6729C196.221 58.426 194.19 56.1774 192.449 54.4272C190.13 52.2631 187.957 50.4305 187.957 48.2664C187.957 45.8513 191.146 43.6032 195.638 43.6032C195.84 43.6032 196.033 43.6177 196.23 43.6242C188.093 39.342 177.251 36.7275 165.342 36.7275C149.363 36.7275 135.304 41.4367 127.125 48.5693C128.198 48.5878 129.21 48.6008 130.069 48.6008C134.853 48.6008 142.259 48.2674 142.259 48.2674C144.725 48.1839 145.015 50.264 142.552 50.4315C142.552 50.4315 140.074 50.5989 137.317 50.6819L153.974 79.1391L163.984 61.8958L156.857 50.6809C154.394 50.5979 152.061 50.4305 152.061 50.4305C149.596 50.3475 149.885 48.1829 152.35 48.2664C152.35 48.2664 159.904 48.5998 164.398 48.5998C169.182 48.5998 176.588 48.2664 176.588 48.2664C179.056 48.1829 179.346 50.263 176.882 50.4305C176.882 50.4305 174.398 50.5979 171.646 50.6809L188.176 78.9226L192.739 70.1658C194.716 66.5319 196.221 63.9219 196.221 61.6729Z" fill="white"/>
<path d="M166.145 65.2969L152.421 88.2021C156.519 88.8939 160.852 89.2724 165.343 89.2724C170.669 89.2724 175.777 88.7435 180.532 87.7831C180.409 87.6707 180.298 87.5512 180.207 87.4212L166.145 65.2969Z" fill="white"/>
<path d="M205.478 50.3937C205.675 51.2305 205.786 52.1289 205.786 53.0952C205.786 55.7612 204.92 58.7581 202.309 62.5054L188.337 85.7075C201.935 81.1529 211.082 72.691 211.082 62.9988C211.083 58.4312 209.051 54.136 205.478 50.3937Z" fill="white"/>
<path d="M165.193 32.375C135.793 32.375 111.873 46.1129 111.873 62.9993C111.873 79.8876 135.793 93.625 165.193 93.625C194.592 93.625 218.515 79.8876 218.515 62.9993C218.514 46.1129 194.592 32.375 165.193 32.375ZM165.193 92.2213C137.141 92.2213 114.318 79.1122 114.318 62.9993C114.318 46.8873 137.14 33.7792 165.193 33.7792C193.243 33.7792 216.065 46.8873 216.065 62.9993C216.065 79.1122 193.243 92.2213 165.193 92.2213Z" fill="white"/>
<path fill-rule="evenodd" clip-rule="evenodd" d="M64.7578 2.625C56.3522 2.625 49.4677 6.58139 49.4677 11.4087V22.9688C49.4677 23.6936 48.4456 24.2813 47.1846 24.2813C45.9237 24.2813 44.9015 23.6936 44.9015 22.9688V11.4087C44.9015 5.13015 53.8329 0 64.7578 0H141.485C152.41 0 161.341 5.13015 161.341 11.4087V22.9688C161.341 23.6936 160.319 24.2813 159.058 24.2813C157.797 24.2813 156.775 23.6936 156.775 22.9688V11.4087C156.775 6.5814 149.89 2.625 141.485 2.625H64.7578Z" fill="white"/>
<path fill-rule="evenodd" clip-rule="evenodd" d="M144.213 15.1249C145.105 14.6123 146.55 14.6123 147.442 15.1249L158.999 21.7689L170.557 15.1249C171.448 14.6123 172.894 14.6123 173.786 15.1249C174.677 15.6375 174.677 16.4685 173.786 16.9811L160.614 24.5532C159.722 25.0657 158.277 25.0657 157.385 24.5532L144.213 16.9811C143.321 16.4685 143.321 15.6375 144.213 15.1249Z" fill="white"/>
<path fill-rule="evenodd" clip-rule="evenodd" d="M141.485 123.375C149.89 123.375 156.775 119.419 156.775 114.591V103.031C156.775 102.306 157.797 101.719 159.058 101.719C160.319 101.719 161.341 102.306 161.341 103.031V114.591C161.341 120.87 152.41 126 141.485 126H64.7578C53.833 126 44.9015 120.87 44.9015 114.591V103.031C44.9015 102.306 45.9237 101.719 47.1847 101.719C48.4456 101.719 49.4678 102.306 49.4678 103.031V114.591C49.4678 119.419 56.3522 123.375 64.7578 123.375H141.485Z" fill="white"/>
<path fill-rule="evenodd" clip-rule="evenodd" d="M62.0295 110.875C61.1379 111.388 59.6923 111.388 58.8007 110.875L47.2432 104.231L35.6857 110.875C34.7941 111.388 33.3485 111.388 32.4569 110.875C31.5653 110.363 31.5653 109.532 32.4569 109.019L45.6288 101.447C46.5204 100.934 47.966 100.934 48.8576 101.447L62.0295 109.019C62.9211 109.532 62.9211 110.363 62.0295 110.875Z" fill="white"/>
</g>
<defs>
<clipPath id="clip0_1_369">
<rect width="220" height="126" fill="white"/>
</clipPath>
</defs>
</svg>
