<svg width="22" height="23" viewBox="0 0 22 23" fill="none" xmlns="http://www.w3.org/2000/svg">
<path d="M7.81049 8.15632L5.79033 6.42413C5.57546 6.23988 5.29421 6.13843 4.99843 6.13843H1.1523C0.516924 6.13843 0 6.60694 0 7.18281V14.8163C0 15.3921 0.516924 15.8606 1.1523 15.8606H7.01858C7.65396 15.8606 8.17089 15.3921 8.17089 14.8163V8.91499C8.17089 8.62923 8.03953 8.3527 7.81049 8.15632ZM7.20004 8.41707H5.63582C5.57806 8.41707 5.53106 8.37448 5.53106 8.32213V6.98601L7.20004 8.41707ZM7.01858 15.291H1.1523C0.863495 15.291 0.62853 15.078 0.62853 14.8163V7.18281C0.62853 6.92105 0.863495 6.70809 1.1523 6.70809H4.90253V8.32213C4.90253 8.68859 5.23148 8.98673 5.63582 8.98673H7.54236V14.8163C7.54236 15.078 7.30739 15.291 7.01858 15.291Z" fill="white"/>
<path d="M6.32681 9.9364H1.71759C1.54403 9.9364 1.40332 10.0639 1.40332 10.2212C1.40332 10.3785 1.54403 10.5061 1.71759 10.5061H6.32681C6.50036 10.5061 6.64107 10.3785 6.64107 10.2212C6.64107 10.0639 6.50036 9.9364 6.32681 9.9364Z" fill="white"/>
<path d="M6.32681 11.4556H1.71759C1.54403 11.4556 1.40332 11.5831 1.40332 11.7404C1.40332 11.8977 1.54403 12.0252 1.71759 12.0252H6.32681C6.50036 12.0252 6.64107 11.8977 6.64107 11.7404C6.64107 11.5831 6.50036 11.4556 6.32681 11.4556Z" fill="white"/>
<path d="M3.24114 12.9749H1.71759C1.54403 12.9749 1.40332 13.1024 1.40332 13.2597C1.40332 13.417 1.54403 13.5445 1.71759 13.5445H3.24114C3.4147 13.5445 3.55541 13.417 3.55541 13.2597C3.55541 13.1024 3.4147 12.9749 3.24114 12.9749Z" fill="white"/>
<path d="M12.0416 10.9996C12.0416 12.6503 13.1009 14.0767 14.637 14.7527L12.4403 9.30249C12.1848 9.82112 12.0416 10.3951 12.0416 10.9996Z" fill="white"/>
<path d="M19.7552 10.7889C19.7552 10.2735 19.5507 9.91662 19.3754 9.63882C19.142 9.29531 18.9232 9.00441 18.9232 8.6609C18.9232 8.27756 19.2442 7.92073 19.6964 7.92073C19.7169 7.92073 19.7362 7.92303 19.7561 7.92406C18.9368 7.24435 17.8453 6.82935 16.6464 6.82935C15.0376 6.82935 13.6221 7.57682 12.7987 8.70899C12.9067 8.71193 13.0086 8.71399 13.0951 8.71399C13.5767 8.71399 14.3223 8.66106 14.3223 8.66106C14.5706 8.64781 14.5999 8.97799 14.3519 9.00457C14.3519 9.00457 14.1024 9.03115 13.8248 9.04432L15.5018 13.5613L16.5096 10.8243L15.7921 9.04417C15.5441 9.03099 15.3092 9.00441 15.3092 9.00441C15.061 8.99124 15.0901 8.64765 15.3383 8.6609C15.3383 8.6609 16.0988 8.71383 16.5513 8.71383C17.0329 8.71383 17.7786 8.6609 17.7786 8.6609C18.027 8.64765 18.0562 8.97783 17.8081 9.00441C17.8081 9.00441 17.5581 9.03099 17.281 9.04417L18.9452 13.527L19.4046 12.137C19.6037 11.5602 19.7552 11.1459 19.7552 10.7889Z" fill="white"/>
<path d="M16.7278 11.3645L15.3461 15.0002C15.7586 15.1101 16.1949 15.1701 16.647 15.1701C17.1832 15.1701 17.6975 15.0862 18.1762 14.9337C18.1639 14.9159 18.1526 14.8969 18.1434 14.8763L16.7278 11.3645Z" fill="white"/>
<path d="M20.6876 8.99878C20.7074 9.13161 20.7186 9.2742 20.7186 9.42759C20.7186 9.85076 20.6313 10.3265 20.3685 10.9213L18.9618 14.6041C20.3309 13.8812 21.2517 12.538 21.2517 10.9996C21.2518 10.2746 21.0473 9.59279 20.6876 8.99878Z" fill="white"/>
<path d="M16.6316 6.13843C13.6717 6.13843 11.2634 8.31905 11.2634 10.9994C11.2634 13.6801 13.6717 15.8606 16.6316 15.8606C19.5914 15.8606 22 13.6801 22 10.9994C21.9999 8.31905 19.5914 6.13843 16.6316 6.13843ZM16.6316 15.6378C13.8074 15.6378 11.5096 13.557 11.5096 10.9994C11.5096 8.44196 13.8073 6.36132 16.6316 6.36132C19.4557 6.36132 21.7533 8.44196 21.7533 10.9994C21.7533 13.557 19.4557 15.6378 16.6316 15.6378Z" fill="white"/>
<path fill-rule="evenodd" clip-rule="evenodd" d="M6.51974 1.41667C5.67347 1.41667 4.98035 2.04466 4.98035 2.8109V4.64583C4.98035 4.76089 4.87744 4.85416 4.75049 4.85416C4.62354 4.85416 4.52063 4.76089 4.52063 4.64583V2.8109C4.52063 1.81431 5.41983 1 6.51974 1H14.2445C15.3444 1 16.2436 1.81431 16.2436 2.8109V4.64583C16.2436 4.76089 16.1407 4.85416 16.0137 4.85416C15.8868 4.85416 15.7839 4.76089 15.7839 4.64583V2.8109C15.7839 2.04466 15.0908 1.41667 14.2445 1.41667H6.51974Z" fill="white"/>
<path fill-rule="evenodd" clip-rule="evenodd" d="M14.5192 3.40062C14.609 3.31926 14.7545 3.31926 14.8443 3.40062L16.0079 4.45523L17.1715 3.40062C17.2613 3.31926 17.4068 3.31926 17.4966 3.40062C17.5863 3.48198 17.5863 3.61389 17.4966 3.69525L16.1704 4.89717C16.0807 4.97853 15.9351 4.97853 15.8454 4.89717L14.5192 3.69525C14.4295 3.61389 14.4295 3.48198 14.5192 3.40062Z" fill="white"/>
<path fill-rule="evenodd" clip-rule="evenodd" d="M14.2443 20.5833C15.0906 20.5833 15.7837 19.9553 15.7837 19.1891V17.3542C15.7837 17.2391 15.8866 17.1458 16.0135 17.1458C16.1405 17.1458 16.2434 17.2391 16.2434 17.3542V19.1891C16.2434 20.1857 15.3442 21 14.2443 21H6.51953C5.41963 21 4.52043 20.1857 4.52043 19.1891V17.3542C4.52043 17.2391 4.62334 17.1458 4.75029 17.1458C4.87724 17.1458 4.98015 17.2391 4.98015 17.3542V19.1891C4.98015 19.9553 5.67327 20.5833 6.51953 20.5833H14.2443Z" fill="white"/>
<path fill-rule="evenodd" clip-rule="evenodd" d="M6.24505 18.599C6.15529 18.6804 6.00975 18.6804 5.91998 18.599L4.75639 17.5444L3.59279 18.599C3.50303 18.6804 3.35749 18.6804 3.26772 18.599C3.17795 18.5177 3.17795 18.3857 3.26772 18.3044L4.59385 17.1025C4.68362 17.0211 4.82916 17.0211 4.91892 17.1025L6.24505 18.3044C6.33482 18.3857 6.33482 18.5177 6.24505 18.599Z" fill="white"/>
</svg>
